<svg width="140" height="104" viewBox="0 0 140 104" fill="none" xmlns="http://www.w3.org/2000/svg">
<path d="M43.2182 98.3125L86.2791 73.8878V24.8516L43.2182 49.4586V98.3125Z" fill="white"/>
<path d="M43.2186 0L64.7513 12.4102L21.8706 37.1106V86.2358L0 73.661V24.8516L43.2186 0Z" fill="#007BFF"/>
<path d="M43.2182 98.3125L86.2791 73.8878V24.8516L43.2182 49.4586V98.3125Z" fill="white"/>
<path d="M43.2186 0L64.7513 12.4102L21.8706 37.1106V86.2358L0 73.661V24.8516L43.2186 0Z" fill="#007BFF"/>
<path d="M104.705 91.8865C105.81 91.8865 106.633 92.1443 107.174 92.6597C107.714 93.1752 107.985 93.9369 107.985 94.945C107.985 95.4833 107.853 95.9587 107.588 96.3711C107.323 96.772 106.932 97.087 106.414 97.3161C105.896 97.5337 105.258 97.6426 104.498 97.6426L104.567 96.8694C104.924 96.8694 105.332 96.9209 105.793 97.024C106.253 97.1156 106.696 97.2875 107.122 97.5395C107.559 97.78 107.916 98.1237 108.192 98.5704C108.48 99.0057 108.624 99.567 108.624 100.254C108.624 101.01 108.497 101.629 108.244 102.11C108.002 102.591 107.68 102.963 107.277 103.227C106.874 103.49 106.443 103.674 105.983 103.777C105.522 103.868 105.079 103.914 104.653 103.914H100.355C100.056 103.914 99.8029 103.817 99.5958 103.622C99.4001 103.416 99.3023 103.164 99.3023 102.866V92.9346C99.3023 92.6368 99.4001 92.3905 99.5958 92.1958C99.8029 91.9896 100.056 91.8865 100.355 91.8865H104.705ZM104.394 93.914H101.322L101.546 93.6391V96.7491L101.339 96.5945H104.446C104.78 96.5945 105.079 96.4856 105.344 96.268C105.609 96.0503 105.741 95.7353 105.741 95.323C105.741 94.8304 105.614 94.4753 105.361 94.2577C105.119 94.0286 104.797 93.914 104.394 93.914ZM104.533 98.622H101.391L101.546 98.4845V102.11L101.374 101.938H104.653C105.183 101.938 105.603 101.801 105.913 101.526C106.224 101.239 106.38 100.816 106.38 100.254C106.38 99.7388 106.276 99.3665 106.069 99.1374C105.862 98.9083 105.614 98.7651 105.327 98.7079C105.039 98.6506 104.774 98.622 104.533 98.622Z" fill="#007BFF"/>
<path d="M111.666 91.8865H117.449C117.748 91.8865 117.996 91.9839 118.191 92.1786C118.398 92.3619 118.502 92.6024 118.502 92.9003C118.502 93.1866 118.398 93.4215 118.191 93.6047C117.996 93.7766 117.748 93.8625 117.449 93.8625H112.616L112.771 93.5704V96.9209L112.633 96.7835H116.672C116.971 96.7835 117.219 96.8808 117.414 97.0756C117.622 97.2588 117.725 97.4994 117.725 97.7972C117.725 98.0836 117.622 98.3184 117.414 98.5017C117.219 98.6735 116.971 98.7594 116.672 98.7594H112.685L112.771 98.622V102.093L112.633 101.938H117.449C117.748 101.938 117.996 102.041 118.191 102.247C118.398 102.442 118.502 102.671 118.502 102.935C118.502 103.221 118.398 103.456 118.191 103.639C117.996 103.822 117.748 103.914 117.449 103.914H111.666C111.367 103.914 111.114 103.817 110.907 103.622C110.711 103.416 110.613 103.164 110.613 102.866V92.9346C110.613 92.6368 110.711 92.3905 110.907 92.1958C111.114 91.9896 111.367 91.8865 111.666 91.8865Z" fill="#007BFF"/>
<path d="M124.582 103.914C124.26 103.914 123.996 103.817 123.788 103.622C123.581 103.416 123.478 103.164 123.478 102.866V92.9003H125.722V102.866C125.722 103.164 125.612 103.416 125.394 103.622C125.187 103.817 124.916 103.914 124.582 103.914ZM120.768 93.8625C120.468 93.8625 120.215 93.7708 120.008 93.5876C119.813 93.4043 119.715 93.1637 119.715 92.8659C119.715 92.5681 119.813 92.3333 120.008 92.1614C120.215 91.9782 120.468 91.8865 120.768 91.8865H128.432C128.731 91.8865 128.978 91.9782 129.174 92.1614C129.381 92.3447 129.485 92.5853 129.485 92.8831C129.485 93.1809 129.381 93.4215 129.174 93.6047C128.978 93.7766 128.731 93.8625 128.432 93.8625H120.768Z" fill="#007BFF"/>
<path d="M134.873 94.5841L131.145 103.313C131.064 103.53 130.938 103.702 130.765 103.828C130.604 103.943 130.426 104 130.23 104C129.919 104 129.689 103.914 129.54 103.742C129.39 103.57 129.315 103.359 129.315 103.107C129.315 103.003 129.332 102.895 129.367 102.78L133.665 92.5051C133.757 92.276 133.895 92.0984 134.079 91.9724C134.275 91.8464 134.482 91.7949 134.701 91.8178C134.908 91.8178 135.098 91.8808 135.27 92.0068C135.454 92.1213 135.587 92.2874 135.667 92.5051L139.914 102.574C139.971 102.723 140 102.86 140 102.986C140 103.296 139.896 103.542 139.689 103.725C139.494 103.908 139.275 104 139.033 104C138.826 104 138.636 103.937 138.464 103.811C138.303 103.685 138.176 103.513 138.084 103.296L134.373 94.6872L134.873 94.5841ZM131.68 101.216L132.629 99.2405H137.29L137.618 101.216H131.68Z" fill="#007BFF"/>
</svg>
